#!OML:ASF F:\VICON\USERDATA\INSTALL\rory3\rory3.ASF
:FULLY-SPECIFIED
:DEGREES
385
root 1.01771 18.1841 0.296192 -180.662 -76.0225 181.159
lowerback 11.233 1.75865 -2.16782
upperback 0.686344 2.02642 0.114967
thorax -5.66294 1.03404 1.02014
lowerneck -19.9897 -8.08346 -13.8144
upperneck 26.3398 -11.5784 13.064
head 13.9597 -5.00695 5.35471
rclavicle 6.5102e-015 -4.37326e-015
rhumerus -29.8358 -8.83315 -84.571
rradius 34.8793
rwrist 5.20547
rhand -14.9555 9.07315
rfingers 7.12502
rthumb 11.2076 -20.6075
lclavicle 6.5102e-015 -4.37326e-015
lhumerus -36.4619 4.38316 85.1717
lradius 29.7773
lwrist -5.1296
lhand -19.0413 24.9996
lfingers 7.12502
lthumb 7.26524 54.8549
rfemur -8.99156 -4.54312 19.5254
rtibia 25.6821
rfoot -16.8256 -13.0377
rtoes 4.7208
lfemur -2.93012 1.67472 -24.2669
ltibia 12.7471
lfoot -3.90357 6.65244
ltoes -3.3656
386
root 1.02884 18.1842 0.326264 -180.385 -75.2351 180.925
lowerback 11.2711 1.74407 -2.23094
upperback 0.659824 1.99367 0.0495955
thorax -5.71084 1.01913 0.990992
lowerneck -19.8703 -8.07838 -13.6861
upperneck 26.2902 -11.6226 13.03
head 13.9083 -5.02492 5.30855
rclavicle -3.4601e-014 1.59028e-015
rhumerus -29.8304 -8.72614 -84.7684
rradius 34.9709
rwrist 5.33631
rhand -15.2319 9.19801
rfingers 7.12502
rthumb 10.941 -20.4969
lclavicle -3.4601e-014 1.59028e-015
lhumerus -36.5476 4.3738 85.0661
lradius 29.6665
lwrist -5.25701
lhand -19.0879 25.364
lfingers 7.12502
lthumb 7.2203 55.2209
rfemur -9.28941 -5.57985 19.4131
rtibia 26.0995
rfoot -16.7775 -14.9228
rtoes 6.82867
lfemur -2.84209 1.88553 -24.4176
ltibia 12.3918
lfoot -3.59294 7.13866
ltoes -3.52755
387
root 1.0345 18.1886 0.356177 -180.725 -74.3874 181.321
lowerback 11.2542 1.70278 -2.11602
upperback 0.61973 1.95359 0.0373748
thorax -5.73776 0.997191 0.919812
lowerneck -19.6296 -8.05565 -13.6636
upperneck 26.1696 -11.6197 13.0284
head 13.8032 -5.03435 5.30342
rclavicle 5.59082e-016 -2.98177e-016
rhumerus -29.9158 -8.45386 -84.9332
rradius 35.1377
rwrist 5.38237
rhand -15.063 9.49376
rfingers 7.12502
rthumb 11.104 -20.1925
lclavicle 5.59082e-016 -2.98177e-016
lhumerus -36.7056 4.70444 84.7803
lradius 29.5014
lwrist -5.87228
lhand -18.3332 24.4003
lfingers 7.12502
lthumb 7.94877 54.2308
rfemur -9.56537 -6.56531 19.4822
rtibia 26.5634
rfoot -16.7227 -16.5971
rtoes 8.30356
lfemur -2.70848 2.12878 -24.4041
ltibia 12.0341
lfoot -3.39076 7.65805
ltoes -3.54323
388
root 1.03725 18.1923 0.384926 -181.3 -73.4338 181.974
lowerback 11.1567 1.70141 -1.93652
upperback 0.612041 1.97977 0.0764595
thorax -5.68726 1.00602 0.858027
lowerneck -19.4746 -8.05943 -13.6739
upperneck 26.0907 -11.6322 13.0108
head 13.738 -5.05137 5.29439
rclavicle -9.49197e-015 7.15625e-015
rhumerus -29.9909 -8.13826 -85.0678
rradius 35.4754
rwrist 5.37068
rhand -14.7097 9.44184
rfingers 7.12502
rthumb 11.4447 -20.2258
lclavicle -9.49197e-015 7.15625e-015
lhumerus -36.7934 4.85126 84.6613
lradius 29.3378
lwrist -6.27287
lhand -17.6212 22.9946
lfingers 7.12502
lthumb 8.63588 52.7979
rfemur -9.88458 -7.68104 19.637
rtibia 27.0809
rfoot -16.3407 -17.8563
rtoes 7.8677
lfemur -2.57328 2.32293 -24.2932
ltibia 11.6963
lfoot -3.16612 8.31703
ltoes -3.60974
389
root 1.0458 18.1993 0.419184 -181.383 -72.5223 182.144
lowerback 11.1897 1.68525 -1.80837
upperback 0.566294 1.97549 0.0974565
thorax -5.75012 1.00183 0.806915
lowerneck -19.5073 -8.05504 -13.8326
upperneck 26.2319 -11.6085 13.0413
head 13.8145 -5.05568 5.34398
rclavicle 3.0501e-014 1.78906e-015
rhumerus -30.0326 -8 -85.134
rradius 35.6156
rwrist 5.58233
rhand -14.7271 9.40944
rfingers 7.12502
rthumb 11.4279 -20.2591
lclavicle 3.0501e-014 1.78906e-015
lhumerus -36.8811 4.4885 84.9579
lradius 29.292
lwrist -5.26393
lhand -16.7031 22.6409
lfingers 7.12502
lthumb 9.52179 52.4058
rfemur -10.2824 -8.99436 19.6514
rtibia 27.6487
rfoot -15.9311 -18.6322
rtoes 7.98881
lfemur -2.51816 2.48598 -24.3237
ltibia 11.3847
lfoot -2.89977 8.94921
ltoes -3.21292
390
root 1.05711 18.2083 0.446562 -181.362 -71.7003 182.171
lowerback 11.3771 1.62603 -1.76335
upperback 0.456468 1.89965 0.101422
thorax -5.9674 0.965773 0.791268
lowerneck -19.4977 -8.03761 -14.0813
upperneck 26.4158 -11.5861 13.1706
head 13.9155 -5.06256 5.45297
rclavicle 4.37326e-015 1.98785e-015
rhumerus -30.1556 -7.43386 -85.3229
rradius 35.669
rwrist 5.37961
rhand -14.9665 9.43722
rfingers 7.12502
rthumb 11.197 -20.244
lclavicle 4.37326e-015 1.98785e-015
lhumerus -37.0697 4.795 84.7409
lradius 29.1993
lwrist -5.92653
lhand -16.3869 23.8253
lfingers 7.12502
lthumb 9.82686 53.576
rfemur -10.604 -10.3368 19.6543
rtibia 28.2654
rfoot -16.0539 -19.1397
rtoes 9.38337
lfemur -2.41416 2.81061 -24.3583
ltibia 11.0202
lfoot -2.67551 9.33829
ltoes -2.62534
391
root 1.06672 18.2167 0.473376 -181.324 -70.8389 182.191
lowerback 11.4697 1.64688 -1.70925
upperback 0.380986 1.92943 0.0460043
thorax -6.09618 0.979458 0.694001
lowerneck -19.381 -8.10432 -14.1591
upperneck 26.4711 -11.7283 13.2528
head 13.9524 -5.1326 5.47496
rclavicle 4.37575e-014 -7.95139e-016
rhumerus -30.2818 -6.60134 -85.6223
rradius 35.9872
rwrist 4.52952
rhand -15.0802 9.22194
rfingers 7.12502
rthumb 11.0874 -20.4652
lclavicle 4.37575e-014 -7.95139e-016
lhumerus -37.2155 4.75979 84.5889
lradius 29.138
lwrist -6.32187
lhand -18.6947 25.6347
lfingers 7.12502
lthumb 7.59984 55.4781
rfemur -10.9301 -11.4703 19.6384
rtibia 28.8958
rfoot -16.0103 -19.5896
rtoes 10.1403
lfemur -2.32459 3.21071 -24.3934
ltibia 10.6437
lfoot -2.42976 9.67683
ltoes -2.18261
392
root 1.07727 18.2188 0.500343 -181.044 -69.8781 181.886
lowerback 11.5059 1.67056 -1.83087
upperback 0.381587 1.94273 0.0359288
thorax -6.12012 0.989054 0.748698
lowerneck -19.2717 -8.10098 -14.1846
upperneck 26.4682 -11.6852 13.1076
head 13.9091 -5.13936 5.42868
rclavicle 1.60519e-014 -7.7526e-015
rhumerus -30.2885 -6.13414 -85.7543
rradius 36.2091
rwrist 4.11654
rhand -15.1945 9.0516
rfingers 7.12502
rthumb 10.9771 -20.6414
lclavicle 1.60519e-014 -7.7526e-015
lhumerus -37.3584 4.78759 84.6026
lradius 29.1718
lwrist -6.51418
lhand -13.3794 19.6544
lfingers 7.12502
lthumb 12.7275 49.2465
rfemur -11.2151 -12.1625 19.4738
rtibia 29.5158
rfoot -15.7221 -20.0514
rtoes 11.75
lfemur -2.15833 3.61353 -24.5389
ltibia 10.236
lfoot -2.21319 10.1191
ltoes -1.24872
393
root 1.09103 18.2158 0.52458 -180.838 -68.9552 181.686
lowerback 11.5425 1.64532 -1.96511
upperback 0.371408 1.89104 0.0493897
thorax -6.15494 0.967841 0.845961
lowerneck -19.2478 -8.03075 -14.1527
upperneck 26.5044 -11.5472 12.9395
head 13.8777 -5.09848 5.38287
rclavicle 4.32854e-014 -9.93923e-016
rhumerus -30.2663 -6.14565 -85.7935
rradius 36.1856
rwrist 4.26602
rhand -15.3922 9.22658
rfingers 7.12502
rthumb 10.7865 -20.4765
lclavicle 4.32854e-014 -9.93923e-016
lhumerus -37.4994 4.95155 84.5993
lradius 29.1869
lwrist -6.54439
lhand -23.1935 29.3926
lfingers 7.12502
lthumb 3.25623 59.3475
rfemur -11.5235 -12.772 19.3374
rtibia 30.1317
rfoot -15.6874 -20.2654
rtoes 14.9618
lfemur -1.90606 3.93628 -24.6515
ltibia 9.59612
lfoot -1.90561 10.6291
ltoes -0.0161263
